<mxfile host="app.diagrams.net" modified="2023-09-18T23:23:43.118Z" agent="Mozilla/5.0 (Windows NT 10.0; Win64; x64) AppleWebKit/537.36 (KHTML, like Gecko) Chrome/116.0.0.0 Safari/537.36" etag="vWtI_6JYWhlDF5KRrc8_" version="21.7.4" type="github">
  <diagram name="Página-1" id="u3SoctwgmEK0xbQMJDkB">
    <mxGraphModel dx="1050" dy="581" grid="1" gridSize="10" guides="1" tooltips="1" connect="1" arrows="1" fold="1" page="1" pageScale="1" pageWidth="827" pageHeight="1169" math="0" shadow="0">
      <root>
        <mxCell id="0" />
        <mxCell id="1" parent="0" />
        <mxCell id="WkSrDXVrBn3va8M9n8eX-1" value="Necessidades:&lt;br&gt;1.0 - Registrar os dados dos segurados e seus respectivos carros&lt;br&gt;2.0 - Realizar o registro da apólice de seguro do cliente.&lt;br&gt;3.0 - Realizar o registro do Sinistro do segurado." style="rounded=0;whiteSpace=wrap;html=1;" vertex="1" parent="1">
          <mxGeometry x="90" y="50" width="210" height="120" as="geometry" />
        </mxCell>
        <mxCell id="WkSrDXVrBn3va8M9n8eX-2" value="Características&lt;br&gt;1.1 - Cadastro dos Veículos&lt;br&gt;1.2 - Cadastro do segurado&lt;br&gt;2.1 - Criação da Proposta&lt;br&gt;2.2 - Registro da apólice&lt;br&gt;3.1 - Registro de Sinistro" style="rounded=0;whiteSpace=wrap;html=1;" vertex="1" parent="1">
          <mxGeometry x="10" y="190" width="160" height="120" as="geometry" />
        </mxCell>
        <mxCell id="WkSrDXVrBn3va8M9n8eX-3" value="UC001 - Registrar Segurado&lt;br&gt;UC002 - Vinculo do Veiculo&lt;br&gt;UC003 - Registrar Propostas&lt;br&gt;UC004 - Gerar Apólice&lt;br&gt;UC005 - Registrar Sinistro&lt;br&gt;UC006 - Login" style="rounded=0;whiteSpace=wrap;html=1;" vertex="1" parent="1">
          <mxGeometry x="200" y="190" width="160" height="120" as="geometry" />
        </mxCell>
        <mxCell id="WkSrDXVrBn3va8M9n8eX-4" value="Lista de Atores&lt;br&gt;&lt;br&gt;Usuário&lt;br&gt;Corretor&lt;br&gt;Atendente" style="rounded=0;whiteSpace=wrap;html=1;" vertex="1" parent="1">
          <mxGeometry x="400" y="190" width="150" height="120" as="geometry" />
        </mxCell>
        <mxCell id="WkSrDXVrBn3va8M9n8eX-18" style="edgeStyle=orthogonalEdgeStyle;rounded=0;orthogonalLoop=1;jettySize=auto;html=1;entryX=0;entryY=0.3333333333333333;entryDx=0;entryDy=0;entryPerimeter=0;" edge="1" parent="1" source="WkSrDXVrBn3va8M9n8eX-6" target="WkSrDXVrBn3va8M9n8eX-12">
          <mxGeometry relative="1" as="geometry" />
        </mxCell>
        <mxCell id="WkSrDXVrBn3va8M9n8eX-19" value="Proposta/Apólice" style="edgeLabel;html=1;align=center;verticalAlign=middle;resizable=0;points=[];" vertex="1" connectable="0" parent="WkSrDXVrBn3va8M9n8eX-18">
          <mxGeometry x="-0.3318" y="-3" relative="1" as="geometry">
            <mxPoint as="offset" />
          </mxGeometry>
        </mxCell>
        <mxCell id="WkSrDXVrBn3va8M9n8eX-6" value="Seguro de Carro" style="ellipse;whiteSpace=wrap;html=1;" vertex="1" parent="1">
          <mxGeometry x="190" y="382" width="180" height="90" as="geometry" />
        </mxCell>
        <mxCell id="WkSrDXVrBn3va8M9n8eX-8" value="Diagrama de Contexto" style="rounded=1;whiteSpace=wrap;html=1;" vertex="1" parent="1">
          <mxGeometry x="50" y="330" width="90" height="30" as="geometry" />
        </mxCell>
        <mxCell id="WkSrDXVrBn3va8M9n8eX-11" style="edgeStyle=orthogonalEdgeStyle;rounded=0;orthogonalLoop=1;jettySize=auto;html=1;" edge="1" parent="1" source="WkSrDXVrBn3va8M9n8eX-9" target="WkSrDXVrBn3va8M9n8eX-6">
          <mxGeometry relative="1" as="geometry" />
        </mxCell>
        <mxCell id="WkSrDXVrBn3va8M9n8eX-9" value="Usuário&lt;br&gt;" style="shape=umlActor;verticalLabelPosition=bottom;verticalAlign=top;html=1;outlineConnect=0;" vertex="1" parent="1">
          <mxGeometry x="460" y="380" width="30" height="60" as="geometry" />
        </mxCell>
        <mxCell id="WkSrDXVrBn3va8M9n8eX-20" style="edgeStyle=orthogonalEdgeStyle;rounded=0;orthogonalLoop=1;jettySize=auto;html=1;entryX=0.5;entryY=1;entryDx=0;entryDy=0;" edge="1" parent="1" source="WkSrDXVrBn3va8M9n8eX-12" target="WkSrDXVrBn3va8M9n8eX-6">
          <mxGeometry relative="1" as="geometry" />
        </mxCell>
        <mxCell id="WkSrDXVrBn3va8M9n8eX-21" value="Registro do Sinistro" style="edgeLabel;html=1;align=center;verticalAlign=middle;resizable=0;points=[];" vertex="1" connectable="0" parent="WkSrDXVrBn3va8M9n8eX-20">
          <mxGeometry x="0.0107" relative="1" as="geometry">
            <mxPoint as="offset" />
          </mxGeometry>
        </mxCell>
        <mxCell id="WkSrDXVrBn3va8M9n8eX-12" value="Corretor" style="shape=umlActor;verticalLabelPosition=bottom;verticalAlign=top;html=1;outlineConnect=0;" vertex="1" parent="1">
          <mxGeometry x="90" y="525" width="30" height="60" as="geometry" />
        </mxCell>
        <mxCell id="WkSrDXVrBn3va8M9n8eX-22" value="Diagrama de Caso de Uso" style="rounded=1;whiteSpace=wrap;html=1;" vertex="1" parent="1">
          <mxGeometry x="60" y="660" width="100" height="40" as="geometry" />
        </mxCell>
      </root>
    </mxGraphModel>
  </diagram>
</mxfile>
